<svg viewBox="0 0 400 400" xmlns="http://www.w3.org/2000/svg" fill-rule="evenodd" clip-rule="evenodd" stroke-linejoin="round" stroke-miterlimit="1.4" width="400px" height="400px">
  <g fill="#340a37">
    <path d="M200 265.8c-7.4 0-14.7.4-22-2.4l-.3 1c2.5 1.2 5 2.8 7.5 3.6 4.8 1.5 9.7 2.7 14.7 1.2h.1a25 25 0 0 0 14.8-1.2c2.6-.8 5-2.4 7.5-3.5l-.4-1.1c-7.2 2.8-14.5 2.4-21.9 2.4zm37.4-60.9l13-.3c-15.5-8.4-28.3-6.4-34.2 5.5l5.4-4.3c6 5.1 11.8 4.5 15.8-1zm-34.2 73.5h-6.4v.2l-1.6 11.9h9.5l-1.5-11.9v-.2zm-53.5-73.8l13 .3c4.1 5.4 9.9 6 15.9.9l5.4 4.3c-6-11.9-18.8-14-34.3-5.5z"/>
    <path d="M341 234.8c.3-3.2.6-6.3.7-9.5l52.2-28.5c2.5-1.4 3.4-2.9 3-5.6-.9-7.4-1.5-14.9-2.4-23.1l-53.4 38c-.4-4.6-1-9-2-13.4l48-39.5c2.5-2 3.1-3.6 2-6.5-3.1-8.2-6-16.5-9.2-25.5L333 170.9c-1.8-4.8-3.9-9.6-6.1-14.1l40.8-48.8c2.2-2.7 2.6-4.4.5-7.3-5.8-8-11.3-16.1-17.4-24.7l-37.3 59.1c-4.2-5.5-8.7-10.8-13.7-15.7L330.6 61c1.3-2.5 1.2-3.8-1-5.6-11.5-9.6-23.8-18-37.6-25.2l-20.8 67.3c-5.8-3.4-11.8-6.3-18-8.8l14.2-69.2c-15.9-5.7-31.4-8-49.2-10.5 0 0-9.8-1.1-14.5-1.1H200A106.2 106.2 0 0 0 181.8 9c-17.8 2.6-33.3 4.8-49.2 10.5l14.2 69.2a141 141 0 0 0-18 8.8L108 30c-13.8 7.1-26 15.6-37.5 25.2-2.3 1.8-2.4 3.1-1 5.6l30.6 58.5c-5 4.9-9.5 10.2-13.7 15.7L49.1 76c-6 8.6-11.6 16.8-17.4 24.7-2 2.9-1.7 4.6.5 7.3L73 156.8c-2.2 4.5-4.3 9.3-6 14.1l-47-49.7c-3.2 9-6 17.3-9.2 25.5-1.1 2.9-.5 4.5 2 6.5l48 39.5c-1 4.4-1.6 8.8-2 13.3L5.5 168c-.9 8.3-1.6 15.8-2.5 23.2-.3 2.7.6 4.2 3 5.6l52.3 28.5c.1 3.2.4 6.4.7 9.5L2.6 207.6 4 226.2c.1 2.4 1.2 3.6 3.6 4.5L61.4 250c.8 3.5 1.7 7 2.7 10.4L6.5 242.2c1 4.5 2.1 8.2 2.9 12 .5 2.3 1.7 3.2 4 3.7l54 12.5 2.5 5.9-57.5-12.6 1.8 5.7c3.9 10.5 3.9 10.4 15 11.7l45.7 5.5c1 2 2 3.8 3.2 5.7l-57-6c2.1 4 3.7 7.3 5.6 10.6.4.7 1.9 1.2 2.8 1.2l53.3 1.5c1.2 1.9 2.5 3.7 3.8 5.4l-54.2 2.1c3.7 5.2 7 9.6 10 14.1.3.6.7 1 1 1.4 6.5 8.2 12.2 14.4 20 21.6l2.9-3c7.9-10.6-10.3-15.7 2.2-20.6 12.2-4.7 23.5-10 36-13.7 1-.2 3.7-.8 13.7-4a287 287 0 0 1 22.6-4.7c8.2-1.3 15 .9 16.3-3.4.6-1.8.2-1.5.4-3 1.6 1.8 8.8 6.8 10.6 8.3a45.8 45.8 0 0 0 22.2 13.5c2.8.8 4.4 4 7 5.3l2.7.8c1-.2 1.9-.5 2.6-.8 2.7-1.2 4.3-4.5 7.1-5.3a45.8 45.8 0 0 0 22.2-13.5c1.7-1.5 9-6.5 10.6-8.3.2 1.5-.2 1.2.4 3 1.4 4.3 8.1 2.1 16.3 3.4 6.7 1.1 16.8 3.2 22.6 4.7 10 3.2 12.8 3.8 13.6 4 12.6 3.6 24 9 36.1 13.7 12.5 5-5.7 10 2.2 20.5a17 17 0 0 0 3 3 169.2 169.2 0 0 0 20.9-22.9c3-4.5 6.3-8.9 10-14l-54.2-2.2c1.3-1.7 2.6-3.5 3.8-5.4l53.3-1.5c1 0 2.4-.5 2.8-1.2 1.9-3.3 3.5-6.6 5.5-10.7l-56.9 6.1 3.2-5.7L371 281c11-1.3 11-1.2 14.9-11.7l1.8-5.7-57.5 12.6 2.4-6 54.1-12.4c2.3-.5 3.5-1.4 4-3.8l2.9-11.9-57.6 18.2c1-3.5 2-7 2.7-10.4l53.8-19.3c2.4-.9 3.5-2 3.6-4.5l1.4-18.6c-18.9 9-37.6 18.1-56.4 27.2zm-35.9-26.4a43.4 43.4 0 0 1-32.9 22.8h-2.9c1-14.4 20.2-21.4 35.8-22.8zm-36-60.8c1.5.3 2.5 3.2 3.3 4.8 2.3 4.7 4.8 9.2 6 14.5 1.5 6.5 2.5 22.6-1.4 28.5 1-1.5.8-4.3.8-9.4 0-4.3-.1-8.5-.5-12.9-.4-5.1-3.2-10-5-14.5-1.2-3.4-1.5-8-3.4-10.9l.1-.1zm-7.5.7a36 36 0 0 1 9.4 14 36.7 36.7 0 0 1 2.2 19.6c-.8-1.7-1.3-7-1.8-8.9-1.2-4-1.7-5.2-3.5-9-1.7-3-3.8-6.1-5-9.4-.7-2-.7-4.3-1.5-6.3h.2zm2.7 15.4a58 58 0 0 1 5 23.7c0-1.8-2.3-12.3-4.8-9-1.7-5-2.6-9-4.7-13.8-1.6-3.8-2.5-9.8-5.6-12.8l-.2-.2c5.8 0 8.5 8 10.3 12zm1 60.8s-5.5-12.1-12.7-16.5c5.2-5 6.4-5.3 11.6-8.6 1.7 3 2.6 8.2 2.7 10.6 0 7.2-.5 7.5-1.6 14.5zm-12.1-68.3v.1c1.3 4.1 3 7.1 3.6 11.5.5 3.3 0 6.9.7 10l.2 1-.2-1c-.6-1.6-2.7-3.2-3.3-4.8-1-2.4-2.2-4.6-2.7-7.3-.4-2.2 0-8 1.7-9.5zm-5.6 17.7c-.4-5.1-4-7-6.6-11.5-1.8-2.7-3.5-4.3-4.6-7.3-.4-.9-.5-5-.6-5.2a28.8 28.8 0 0 1 11.8 24zm-14.4-5c-.1-2-.1-5.6-1.8-6.8-.3.3-.8 1.8-1.1 2-2.3-2.3-2-10.4-2.3-13.5 4.5 3.1 7.3 13 5.2 18.2zm-11.1-6c.3-1.4 1.4-5.9 1.2-6.9 1.5 1.8 1.8 7.4 1.2 9.6a87 87 0 0 1-.9 5.6c-.4 1.4-1.1 2.7-1.8 4 .6-3.7-.5-8.6.3-12.3zm-16.9-9.2c3.2 6.1 1.6 11.8-2.2 17.3.8-5.4-.4-12.1 2.2-17.3zm-2-4.7c0 3.4 0 11.7-2.5 14.4 0-2-.7-10.5 2.5-14.4zm-10.5 12.7c.3-5.1 0-8 3.3-11.9-1.3 2.2.5 4.7.3 9-.1 2.6-1 4.5-2 6.7-1 2.7-.7 6.8-1 9.5 0-4.4-.7-8.9-.6-13.3zm-1.1 24.5H209c-.3.9-5.4 7.3-8.7 11l-.3.3-.3-.3c-3.3-3.7-8.4-10.1-8.7-11h.6zm-12.3-40c0 2.3 1.1 4.7 1.1 6.9 0 2.4-1.1 5.5-.5 8a32 32 0 0 1-.6-14.8zm-9.4 19.3c.1-2.5.6-5 1.4-7.4.5-1.6 2-3.5 2-5.4.6 4.3 2.4 8.5 1.5 12.8-1 4.6-4.5 9.8-2.3 14.3a34 34 0 0 1-2.6-14.3zm-2.2-7.9c-.3 1.3 1 6 .5 8.1-.8 4.2-1.7 6.5-2.3 10.7 0-6.8-1.3-12.6 1.8-18.8zm-9.3-12.7c1.7 5.4-.4 12.5-1.4 17.7-1.3 7.2-3 14.4-1.2 21.4a36.6 36.6 0 0 1-1.7-25c1.3-4.5 3.5-9.3 4.3-14zm-4.8 9.7c.2 5.8-2.2 11.1-2.7 16.8-.4 5-.2 9.2-.1 14-.7-6.6-2.5-13.5-1-20.2.6-3 3.6-8.2 3.8-10.6zm-4.4-1.5c.6 1.5-.3 3.2-.7 4.6-.5 2.2-.7 4.4-1.3 6.6a78 78 0 0 0-2.3 19.7c-.6-16-.2-17.9 4.3-30.9zm-7.4 3.6c1.5 1.8.9 6.2.9 8.5-.2 4.4-1 8.8-1 13.3-.7-3.7-1.7-7.5-1.7-11.3 0-2.9-.3-8.3 1.8-10.5zm5.6 51.3a45.3 45.3 0 0 0-12.7 16.5c-1.1-7-1.6-7.3-1.6-14.5 0-2.4 1-7.6 2.7-10.6 5.2 3.3 6.4 3.7 11.6 8.6zm-8.3-21.9c-3.5-3.7-5.3-12.5-4.8-17.5.5-5.4 2.7-8.3 5.4-12.7-.1 2-1 3.8-1.4 5.7-.4 2.3-.5 5-.8 7.4a35 35 0 0 0 1.6 17.1zm-3.6-53.9c.4.7.1 3.2-2.1 6.2-2 2.6-3.2 5.2-5.6 7.5-4.1 4.6-7.5 8.7-6 14.4-3.5-9.8 4.7-21.8 13.7-28zm-5.3 30.2c-.7 2.4-1.1 7.5-1.2 10.3-2-6-1-18 3.3-22.7 1.5 3.7-1.2 8.6-2.1 12.4zM119.7 181a32 32 0 0 0 4.5 13c-6.4-2.6-9-14.2-7.3-20.1.9-3.3 2.6-6.1 4.2-8.7-.6 5-1.8 10.6-1.4 15.8zm-9-10c1.3-3.3 7.6-5.4 7-5 2-1.4-2.1 4.2-2.8 6.4-.7 3-2.8 5.5-3.7 8.4-.5-3-1.6-6.9-.4-9.7zm20 60.3l-3-.1A43.4 43.4 0 0 1 95 208.4c15.6 1.4 34.8 8.4 35.8 22.9zm-61.1-.7c24.9-3 42.1-5 61 11.5l-4.4.8c-22.2 2.2-32.6 0-56.6-12.3zm64.8 33c1 8.9-4.5 9-13.8 5.7.5 3.7 7.6 8.1 7.3 10.3.5 7.8-7.4 5.8-11.8 2.7-.6 12.3-20.3 2.3-12.8-10.2l-4.9 4.8c-7-17.8 22.6-38.6 40.3-26.8-10.5 5.3-4.5 6.3-4.3 13.5zm81.7-8.4l.1 1v.3s29.4-.2 42.4-5.4c-.5 3.5-1.8 6.9-3 9.8-3.8 9.6-9.9 17-19 22-.5.3-9.5 5.8-13.4 8.6-1.3 1-2.4 2.3-3.7 3.4a28.6 28.6 0 0 1-19.5 5.6c-7 .2-13.7-1-19.5-5.6-1.3-1-2.4-2.5-3.7-3.4-3.9-2.8-13-8.3-13.4-8.6a41.5 41.5 0 0 1-19-22 42.1 42.1 0 0 1-3-9.8c13 5.2 42.4 5.4 42.4 5.4v-1.3s-31.4-3.4-43.8-9.4l-2-8.9c2.3.2 5.6.8 5.7.8 5.4 1.2 11.2 2.8 16.8 4.2 5.8 1.5 11.8 2.7 17.7 4l.6-2.3c-2.5-.8-23.7-6.2-31.8-8.4-3.6-1-4-2.8-3-5.4 1.8-4.6 4-7.7 7.9-12a9.5 9.5 0 0 0-1.7-1.9c-3.5 2.7-13.5 15.4-13.5 15.4l-.7-2.8s6.7-13.2 12-17.6l4-3.1c-3.5-2.2-6.7-6-9-8.2 5-10.8 10.6-13.5 23.9-12.7 13.7 1.3 22.6 3.9 31 11.8-2 1.6-3.7 3.5-5.8 5.2a12 12 0 0 1 2.2 2.2s2.2-2 5.7-4.5c3.5 2.5 5.7 4.5 5.7 4.5s1.3-1.7 2.2-2.2c-2.1-1.7-3.8-3.6-5.9-5.2 8.5-8 17.3-10.5 31.1-11.8 13.3-.8 18.9 1.9 24 12.7-2.4 2.2-5.6 6-9 8.2l3.8 3.1a75 75 0 0 1 12.1 17.6l-.6 2.8s-10.1-12.7-13.6-15.4a9.3 9.3 0 0 0-1.7 1.8c3.9 4.4 6.1 7.5 7.9 12 1 2.7.6 4.5-3 5.5-8.1 2.2-29.3 7.6-31.8 8.4l.6 2.3c5.9-1.3 11.9-2.5 17.7-4 5.6-1.4 11.4-3 16.8-4.2.1 0 3.4-.6 5.7-.8l-2 8.9c-12.4 6-43.9 9.4-43.9 9.4zm85.5 21.7l-5-4.8c7.6 12.5-12 22.5-12.7 10.2-4.4 3.1-12.3 5-11.8-2.7-.3-2.1 6.8-6.6 7.3-10.3-9.3 3.3-14.8 3.2-13.8-5.7.2-7.2 6.2-8.2-4.3-13.5 17.7-11.8 47.2 9 40.3 26.8zm-27.8-35.2l-4.5-.8c19-16.4 36.2-14.5 61.1-11.5-24 12.3-34.4 14.5-56.6 12.3z"/>
    <path d="M189.8 245c2.7-1.7 4.6-2.1 7.5-.9 1 .5 1.8 1 2.6 1v.1h.2c.8-.1 1.6-.5 2.6-1 2.7-1.5 4.6-.8 7.5.7 2.6 1.5 3.2.8 4.6-.6-1.7-1-3-1.6-4.2-2.5-2.1-1.6-4.1-2.4-6.5-.8a9.5 9.5 0 0 1-4.1 1.8 9.5 9.5 0 0 1-4.1-1.8c-2.4-1.6-4.4-.8-6.5.8-1.2.9-2.5 1.5-4.2 2.5 1.4 1.4 2.1 2.2 4.6.6zm96.4-73.1l.3-1m-5.5-13.4c-1.1-1.4-2.9-2.9-4.5-4.6"/>
  </g>
  <g fill-rule="nonzero">
    <path d="M178 380.9l3-1.2c-1.3-1.7-2.2-3-3.2-4a118.3 118.3 0 0 1-30.8-72c-.3-3.4-5-7.9-5-7.9s-37.8 9-58.4 11.4c-24.8 2.8-46.3.6-46.3.6s17 25.2 18.3 27.8a104.9 104.9 0 0 0 42.9 39.7l.4.2 1.3.7 1.5.7.5.1a104.6 104.6 0 0 0 75.7 3.9zm-61.3-70.6c6.6-.2 12.3-.4 17.9-.4.5 0 1.4 1.2 1.6 2 .6 3 1 6.2 1.4 9.4-6.6.1-15.6-4.4-20.9-11zm27.7 38.3h-3.2c-17.8-1.2-33-8-45.1-21.3-7.5-8.2-7.4-8.5 3.2-12 2.3-.8 4.4-1.7 6.6.8 8.2 10 19 15.3 31.5 17.6 1.3.2 3.1.7 3.5 1.6 2 4 3.5 8.3 5 12.3-1 .7-1.3 1-1.5 1zm-70-6.3c-7-8-6.8-8.5 1.8-14.6 2.5-1.8 4.2-1.7 6.1.8 16.7 22 39 32.2 66.4 31.7 1.4 0 3.4.2 4.1 1.1 2.7 3.5 5 7.4 7.8 11.9l-5 1a91.6 91.6 0 0 1-81.1-31.9z" fill="#340a37"/>
    <path d="M105.4 324.9c5.3 0 5.3-8.3 0-8.3s-5.3 8.3 0 8.3z" fill="#331136"/>
    <path d="M115.8 329.9l-.2-.4" fill="#340a37"/>
    <path d="M118.8 327l-.3-.4c-.6-.8-2-1.2-3-1.2a4.1 4.1 0 0 0-4 4.1c0 1.2.5 2 1.2 3l.2.3c.7.8 2 1.2 3 1.2a4.1 4.1 0 0 0 4-4.1c0-1.2-.4-2-1.1-3zm9.5 11.3c5.3 0 5.3-8.2 0-8.2s-5.3 8.2 0 8.2zm-38.5 5.4c5.3 0 5.3-8.2 0-8.2s-5.3 8.2 0 8.2zm10.5 8.5c5.3 0 5.3-8.2 0-8.2s-5.3 8.2 0 8.2z" fill="#331136"/>
    <path d="M110.5 353.6c0 .6 0 .6.3.4" fill="#340a37"/>
    <path d="M106.4 353.6c-.1 1.6.6 3.4 2 4 1.1.6 2.1.9 3.3.5.9-.3 1.3-.6 2-1.2.8-.7 1.2-2 1.2-3a4.1 4.1 0 0 0-4.1-4c-1.2 0-2 .4-3 1.2l.8-.6h-.1c.3 0 .7-.2 1-.4l3.1.5 1.9 2.4.1 1v-.4c.2-1-.4-2.2-1.1-2.9a4.1 4.1 0 0 0-5.9 0c-.8.9-1 1.8-1.2 3z" fill="#331136"/>
    <path d="M122.2 357l.3.3" fill="#340a37"/>
    <path d="M119.3 360s.2.1.2.3c.7.8 2 1.2 3 1.2a4.1 4.1 0 0 0 4-4.2c0-1.2-.4-2-1.1-2.9l-.3-.3c-.6-.8-2-1.2-2.9-1.2a4.1 4.1 0 0 0-4.1 4.1c0 1.2.5 2 1.2 3zm13.3 5c5.4 0 5.4-8.3 0-8.3-5.3 0-5.3 8.2 0 8.2z" fill="#331136"/>
    <path d="M144.6 361.3l.3.3" fill="#340a37"/>
    <path d="M141.7 364.2l.3.3c.6.8 1.9 1.2 2.9 1.2a4.1 4.1 0 0 0 4.1-4c0-1.3-.5-2.1-1.2-3l-.3-.3c-.6-.8-1.9-1.2-2.9-1.2a4.1 4.1 0 0 0-4.1 4c0 1.3.5 2.1 1.2 3zM69 358.7c5.4 0 5.4-8.2 0-8.2-5.3 0-5.3 8.2 0 8.2zm8 7.9c5.3 0 5.3-8.2 0-8.2-5.4 0-5.4 8.2 0 8.2z" fill="#331136"/>
    <path d="M86.5 369.2l.2.3" fill="#340a37"/>
    <path d="M83.6 372l.2.4c.7.8 2 1.2 3 1.2a4.1 4.1 0 0 0 4-4.1c0-1.2-.4-2-1.1-3l-.3-.3c-.6-.8-2-1.2-3-1.2a4.1 4.1 0 0 0-4 4.2c0 1.2.5 2 1.2 2.9z" fill="#331136"/>
    <path d="M97 375c-.3.3 0 .6.2 1" fill="#340a37"/>
    <path d="M94 372.1a4.5 4.5 0 0 0-.7 5.5l1 1.3c.6.8 1.9 1.2 2.9 1.2a4.1 4.1 0 0 0 4.1-4.2c0-1.2-.5-2-1.2-2.9l-.1-.1.6.8-.1-.3c0 .4.2.7.4 1v-.1 2l-1.1 1.8.1-.1a4.2 4.2 0 0 0 0-5.9c-1.5-1.5-4.3-1.6-5.8 0z" fill="#331136"/>
    <path d="M107.6 379.8l.3.3" fill="#340a37"/>
    <path d="M104.7 382.7l.3.3c.6.8 1.9 1.2 2.9 1.2a4.1 4.1 0 0 0 4.1-4.1c0-1.2-.5-2-1.2-3l-.3-.3c-.6-.8-1.9-1.2-2.9-1.2a4.1 4.1 0 0 0-4.1 4.2c0 1.2.5 2 1.2 2.9zm13.1 4.7c5.3 0 5.3-8.3 0-8.3s-5.3 8.3 0 8.3zm12 3.1c5.3 0 5.3-8.3 0-8.3s-5.3 8.3 0 8.3z" fill="#331136"/>
    <path d="M140.3 387c0 .5 0 .5.2.3" fill="#340a37"/>
    <path d="M136.2 387c-.2 1.5.6 3.3 2 4 1 .5 2 .7 3.2.4 1-.3 1.3-.6 2-1.2.9-.7 1.3-2 1.3-3a4.1 4.1 0 0 0-4.2-4c-1.1 0-2 .4-2.9 1.1v.1l.8-.6h-.1c.3 0 .6-.2 1-.4h-.1l3.2.5 1.9 2.4v1l.1-.4a4.1 4.1 0 0 0-7-3c-.9 1-1.1 1.9-1.2 3zm18.1 5c5.3 0 5.3-8.2 0-8.2s-5.3 8.2 0 8.2z" fill="#331136"/>
    <path d="M166 384.8l.4-.2" fill="#340a37"/>
    <path d="M169 387.8l.3-.3c.8-.7 1.2-2 1.2-3a4.1 4.1 0 0 0-4.1-4c-1.2 0-2 .4-3 1.2l-.2.2c-.8.7-1.3 2-1.3 3a4.1 4.1 0 0 0 4.2 4c1.2 0 2-.4 2.9-1.1z" fill="#331136"/>
  </g>
  <g fill-rule="nonzero">
    <path d="M297.8 377l.4-.1a146.5 146.5 0 0 0 2.8-1.4l.5-.2a104.6 104.6 0 0 0 42.9-39.7c1.2-2.6 18.3-27.8 18.3-27.8s-21.5 2.2-46.3-.6a639 639 0 0 1-58.3-11.4s-4.9 4.5-5.1 8c-2 27.4-12.4 51.4-30.8 72-1 1-1.9 2.2-3.2 3.9l3 1.2c25 8.3 52.1 6.8 75.8-3.9zm-35.4-55.7c.5-3.2.8-6.3 1.4-9.4.2-.8 1-2 1.6-2 5.6 0 11.3.2 17.8.4a29.3 29.3 0 0 1-20.8 11zm-8.4 26.3c1.6-4 3.1-8.2 5-12.3.5-1 2.3-1.4 3.6-1.6a51.3 51.3 0 0 0 31.5-17.6c2.1-2.5 4.3-1.6 6.6-.9 10.6 3.6 10.7 4 3.2 12.1a64.8 64.8 0 0 1-48.3 21.3c-.2 0-.5-.3-1.6-1zm-9.6 26.5c-1.4-.1-2.7-.5-5-1 2.9-4.5 5.1-8.3 7.8-11.8.7-.9 2.7-1.1 4.1-1.1 27.4.5 49.7-9.7 66.4-31.7 1.9-2.5 3.6-2.6 6.1-.8 8.6 6 8.8 6.7 1.7 14.6a91.6 91.6 0 0 1-81.1 31.8z" fill="#340a37"/>
    <path d="M294.6 324.9c5.3 0 5.3-8.3 0-8.3s-5.3 8.3 0 8.3z" fill="#331136"/>
    <path d="M284.1 329.9l.3-.4" fill="#340a37"/>
    <path d="M287 332.8l.3-.3c.7-1 1.2-1.8 1.2-3a4.1 4.1 0 0 0-4.1-4c-1 0-2.3.3-3 1.1 0 .1 0 .2-.2.3-.7 1-1.2 1.8-1.2 3a4.1 4.1 0 0 0 7 2.9zm-15.3 5.5c5.3 0 5.3-8.2 0-8.2s-5.3 8.2 0 8.2zm38.5 5.4c5.3 0 5.3-8.2 0-8.2s-5.3 8.2 0 8.2zm-10.5 8.5c5.3 0 5.3-8.2 0-8.2s-5.3 8.2 0 8.2z" fill="#331136"/>
    <path d="M289.4 353.6c.1.6.1.6-.2.4" fill="#340a37"/>
    <path d="M285.3 353.6v.5l.2-1.1 1.9-2.4 3.1-.4c.3 0 .7.2 1 .4l-.1-.1.8.6c-1-.8-1.8-1.3-3-1.3a4.1 4.1 0 0 0-4.1 4.2 4 4 0 0 0 1.2 2.9l1 .8 1 .4c1.2.4 2.2 0 3.2-.4 1.5-.7 2.2-2.5 2-4 0-1.2-.3-2.1-1.1-3a4.1 4.1 0 0 0-5.9 0c-.7.7-1.3 2-1.2 3z" fill="#331136"/>
    <path d="M277.8 357l-.3.3" fill="#340a37"/>
    <path d="M274.9 354l-.3.4c-.7 1-1.2 1.7-1.2 3a4.1 4.1 0 0 0 4.1 4c1 0 2.3-.3 3-1.1l.2-.4c.7-.9 1.2-1.7 1.2-2.9a4.1 4.1 0 0 0-4.1-4.1c-1 0-2.3.4-3 1.2zm-7.5 11c5.3 0 5.3-8.3 0-8.3-5.4 0-5.4 8.2 0 8.2z" fill="#331136"/>
    <path d="M255.4 361.3l-.3.3" fill="#340a37"/>
    <path d="M252.4 358.4l-.2.3c-.7.9-1.2 1.7-1.2 3a4.1 4.1 0 0 0 4.1 4c1 0 2.3-.4 3-1.2 0 0 0-.2.2-.3.7-.9 1.2-1.7 1.2-3a4.1 4.1 0 0 0-4.1-4c-1 0-2.3.4-3 1.2zm78.6.3c5.3 0 5.3-8.2 0-8.2-5.4 0-5.4 8.2 0 8.2zm-8 7.9c5.4 0 5.4-8.2 0-8.2-5.3 0-5.3 8.2 0 8.2z" fill="#331136"/>
    <path d="M313.5 369.2l-.3.3" fill="#340a37"/>
    <path d="M310.6 366.2l-.3.4c-.7.9-1.2 1.7-1.2 2.9a4.1 4.1 0 0 0 4.1 4.1c1 0 2.3-.4 3-1.2l.2-.3c.7-1 1.2-1.7 1.2-3a4.1 4.1 0 0 0-7-2.9z" fill="#331136"/>
    <path d="M303 375c.3.3 0 .6-.2 1" fill="#340a37"/>
    <path d="M300 378h.2c-.4-.5-.7-1.1-1-1.8v.2l-.2-1.1v.1l.2-1.1v.1l.3-1-.1.3.6-.8-.1.1c-.7 1-1.2 1.7-1.2 3a4.1 4.1 0 0 0 7 2.9 7 7 0 0 0 1.4-2.4c.6-1.5-.2-3.3-1.2-4.4-1.5-1.7-4.3-1.5-5.8 0-1.7 1.7-1.5 4.2 0 5.9z" fill="#331136"/>
    <path d="M292.4 379.8l-.3.3" fill="#340a37"/>
    <path d="M289.5 376.8l-.3.4c-.7.9-1.2 1.7-1.2 2.9a4.1 4.1 0 0 0 4.1 4.1c1 0 2.3-.4 3-1.2l.2-.3c.7-1 1.2-1.7 1.2-3a4.1 4.1 0 0 0-4.1-4c-1 0-2.3.3-3 1.1zm-7.3 10.6c5.3 0 5.3-8.3 0-8.3s-5.3 8.3 0 8.3zm-12 3.1c5.3 0 5.3-8.3 0-8.3s-5.3 8.3 0 8.3z" fill="#331136"/>
    <path d="M259.7 387c0 .5 0 .5-.3.3" fill="#340a37"/>
    <path d="M255.6 387v.4l.1-1.1 2-2.5c1 0 2-.2 3-.4l1 .4.7.6c-1-.8-1.8-1.3-3-1.3a4.1 4.1 0 0 0-4 4.2c0 1 .3 2.2 1.1 2.9l1 .8 1 .4c1.2.3 2.2 0 3.3-.4 1.4-.7 2.2-2.5 2-4a4.1 4.1 0 0 0-7-3 4 4 0 0 0-1.2 3zm-9.9 5c5.3 0 5.3-8.2 0-8.2s-5.3 8.2 0 8.2z" fill="#331136"/>
    <path d="M234 384.8l-.4-.2" fill="#340a37"/>
    <path d="M236.8 382c0-.2-.2-.3-.3-.3-.9-.8-1.7-1.3-3-1.3a4.1 4.1 0 0 0-4 4.2 4 4 0 0 0 1.2 2.9l.3.3c.9.7 1.7 1.2 3 1.2a4.1 4.1 0 0 0 4-4.2 4 4 0 0 0-1.2-2.9z" fill="#331136"/>
  </g>
</svg>
